HIERARCHY
ROOT Hips
{
  OFFSET -31.5692 30.0904 122.763
  CHANNELS 6 Xposition Yposition Zposition Zrotation Xrotation Yrotation
  JOINT LeftUpLeg
  {
    OFFSET 8.64259 1.95398 -2.38835
    CHANNELS 3 Zrotation Xrotation Yrotation
    JOINT LeftLeg
    {
      OFFSET 43.7702 0 0
      CHANNELS 3 Zrotation Xrotation Yrotation
      JOINT LeftFoot
      {
        OFFSET 40.6238 0 0
        CHANNELS 3 Zrotation Xrotation Yrotation
        JOINT LeftToeBase
        {
          OFFSET 12.7242 0 0
          CHANNELS 3 Zrotation Xrotation Yrotation
          End Site
          {
            OFFSET 0 0 0
          }
        }
      }
    }
  }
  JOINT RightUpLeg
  {
    OFFSET -8.2249 1.95398 -2.59336
    CHANNELS 3 Zrotation Xrotation Yrotation
    JOINT RightLeg
    {
      OFFSET 43.5653 0 0
      CHANNELS 3 Zrotation Xrotation Yrotation
      JOINT RightFoot
      {
        OFFSET 40.6238 0 0
        CHANNELS 3 Zrotation Xrotation Yrotation
        JOINT RightToeBase
        {
          OFFSET 12.7242 0 0
          CHANNELS 3 Zrotation Xrotation Yrotation
          End Site
          {
            OFFSET 0 0 0
          }
        }
      }
    }
  }
  JOINT Spine
  {
    OFFSET 0.165834 0.87714 6.61349
    CHANNELS 3 Zrotation Xrotation Yrotation
    JOINT Spine1
    {
      OFFSET 7.38963 1.71661e-005 0
      CHANNELS 3 Zrotation Xrotation Yrotation
      JOINT Spine2
      {
        OFFSET 11.9445 1.14441e-005 0
        CHANNELS 3 Zrotation Xrotation Yrotation
        JOINT Spine3
        {
          OFFSET 14.7254 4.19617e-005 0
          CHANNELS 3 Zrotation Xrotation Yrotation
          JOINT Spine4
          {
            OFFSET 10.9679 0 0
            CHANNELS 3 Zrotation Xrotation Yrotation
            JOINT RightShoulder
            {
              OFFSET 2.46616 -1.6653 3.69651
              CHANNELS 3 Zrotation Xrotation Yrotation
              JOINT RightArm
              {
                OFFSET 13.0012 0 0
                CHANNELS 3 Zrotation Xrotation Yrotation
                JOINT RightForeArm
                {
                  OFFSET 28.7848 1.62311e-005 0
                  CHANNELS 3 Zrotation Xrotation Yrotation
                  JOINT RightHand
                  {
                    OFFSET 26.5688 1.62095e-005 0
                    CHANNELS 3 Zrotation Xrotation Yrotation
                    End Site
                    {
                      OFFSET 0 0 0
                    }
                  }
                }
              }
            }
            JOINT LeftShoulder
            {
              OFFSET 2.38034 -1.29275 -3.7523
              CHANNELS 3 Zrotation Xrotation Yrotation
              JOINT LeftArm
              {
                OFFSET 16.3182 6.07031e-005 0
                CHANNELS 3 Zrotation Xrotation Yrotation
                JOINT LeftForeArm
                {
                  OFFSET 27.0901 0 0
                  CHANNELS 3 Zrotation Xrotation Yrotation
                  JOINT LeftHand
                  {
                    OFFSET 24.5451 1.51738e-005 0
                    CHANNELS 3 Zrotation Xrotation Yrotation
                    End Site
                    {
                      OFFSET 0 0 0
                    }
                  }
                }
              }
            }
            JOINT Neck
            {
              OFFSET 5.0226 -0.0266342 0
              CHANNELS 3 Zrotation Xrotation Yrotation
              JOINT Head
              {
                OFFSET 6.69364 2.86102e-005 0
                CHANNELS 3 Zrotation Xrotation Yrotation
                End Site
                {
                  OFFSET 0 0 0
                }
              }
            }
          }
        }
      }
    }
  }
}
MOTION
Frames:	16
Frame Time:	0.0416667
41.8354 102.937 -263.959 -136.955 -81.3315 -138.386 -173.766 -5.79052 89.6917 -6.42464 -7.72014 1.38212 65.9107 3.96589 -1.05721 20.2605 -7.59757 7.7887 170.436 -0.668233 85.7176 -11.7817 -0.874037 -0.00306974 64.7324 -2.2468 1.47306 25.4045 0.954893 2.65165 0.38484 7.50277 -89.9151 11.8662 0.805245 0.0832302 0.1956 0.808127 0.0477076 -22.342 0.743 0.321406 -2.32938 0.743006 0.321409 90.8455 -28.8035 -105.516 42.4695 -7.71552 -7.98872 7.06864 -27.9441 -11.2618 -25.9413 -0.27144 -8.56245 -88.1193 -45.7369 80.7283 -28.8423 15.9512 -15.4686 -5.87034 9.65039 -0.00853396 4.64345 -0.401395 -15.7965 3.48471 -1.02956 -2.05509 -4.05322 -0.667227 0.246705 
41.7074 102.947 -263.822 -141.111 -81.4886 -142.445 -173.445 -6.05528 90.0966 -6.66052 -6.78517 1.2442 66.2568 4.05578 -1.38002 20.7109 -7.24782 7.60964 170.361 -1.45189 85.8039 -11.0717 -0.538917 0.097452 64.2255 -2.07644 1.01956 26.2198 0.677896 2.28098 0.283651 7.50353 -89.9822 11.8671 0.572474 -0.02569 0.196283 0.570791 -0.0508656 -22.3398 0.553726 0.147557 -2.32715 0.55373 0.147554 89.8368 -28.7086 -107.594 41.7683 -8.62083 -6.61313 8.15109 -22.636 -11.1314 -23.5988 0.347949 -11.1513 -87.856 -47.5939 81.4996 -27.0043 16.4253 -14.8879 -6.68178 9.67992 -0.00853471 4.47729 -0.384609 -15.6874 2.32785 -0.823795 -0.591185 -3.78558 -0.718397 -0.559381 
41.5135 102.947 -263.636 -144.271 -81.8573 -145.451 -173.027 -6.15864 90.645 -6.59773 -5.60925 0.992616 66.2593 4.13664 -1.01831 20.5134 -7.30366 7.47603 170.571 -2.00429 86.1221 -10.4534 0.304832 0.0579741 64.1053 -2.01405 1.19427 26.1085 0.748674 2.18442 0.266149 7.52453 -89.9932 11.8252 0.532487 -0.0433144 0.154309 0.530078 -0.0667171 -22.3817 0.520886 0.118727 -2.36905 0.520894 0.118723 89.9987 -29.0428 -107.133 41.2988 -8.8729 -6.75916 8.19883 -24.3296 -11.4597 -26.9113 0.15034 -9.78217 -87.6843 -47.3883 81.7247 -27.1214 16.6079 -15.1111 -6.56447 9.26488 -0.0085244 4.39864 -0.385912 -15.6457 2.15975 -1.0185 -0.883676 -3.30078 -0.867062 -0.47975 
41.3555 102.957 -263.397 -145.122 -81.8334 -146.275 -172.922 -6.45424 90.7694 -6.21991 -5.37802 1.0285 65.9993 4.10211 -1.08576 21.0833 -7.05624 7.67208 170.59 -2.31531 86.254 -10.4739 0.362608 0.0421551 64.4685 -2.21667 0.719284 25.6144 0.900019 2.48816 0.293347 7.54985 -90.0262 11.7746 0.571116 -0.112602 0.10375 0.565607 -0.13763 -22.4324 0.578548 0.0642516 -2.41976 0.578554 0.0642539 89.9746 -28.5868 -107.363 41.4259 -8.73885 -6.49186 7.85063 -23.9319 -12.0865 -26.9675 0.0421036 -9.1735 -87.8853 -47.8914 81.5096 -26.8527 16.3963 -15.1247 -6.63373 9.81461 -0.00853816 3.24373 -0.268725 -16.3622 1.93185 -0.837157 -0.281199 -3.05148 -0.786477 -0.946663 
41.3493 102.962 -263.182 -145.023 -82.1236 -146.416 -173.372 -6.69347 90.3157 -5.49595 -5.60396 1.34156 65.6409 3.99363 -1.05359 20.9882 -7.11835 7.68532 170.504 -2.05054 86.0296 -10.6681 0.558684 0.0476673 64.4456 -1.99913 0.891147 26.1503 0.6075 2.72784 0.285959 7.51653 -89.9814 11.841 0.577434 -0.0245788 0.170181 0.575791 -0.0499712 -22.366 0.558122 0.150112 -2.35331 0.558124 0.150102 89.8958 -29.3152 -107.232 40.9055 -8.73948 -6.51853 7.80077 -26.0146 -12.1864 -27.4352 -0.349177 -7.66102 -87.9646 -47.7566 81.3622 -27.1159 15.9007 -14.5827 -6.70123 10.107 -0.00854581 3.55192 -0.256068 -15.6074 1.57951 -0.853194 -0.609613 -2.88538 -0.754694 -0.951511 
41.2229 102.947 -262.999 -143.989 -82.4108 -145.444 -173.503 -6.59499 90.2329 -5.33833 -6.01532 1.45747 65.8195 4.05337 -1.16916 20.9166 -7.03752 7.41329 170.709 -1.94273 86.1611 -10.4888 0.332061 -0.0881951 64.3652 -1.9066 0.447045 26.1536 0.482316 3.27472 0.299037 7.51683 -89.9772 11.8404 0.605481 -0.019042 0.169622 0.604055 -0.0456686 -22.3666 0.583208 0.163822 -2.35396 0.583205 0.163815 89.9721 -29.3487 -107.067 40.7775 -8.88769 -6.54533 7.47587 -26.6355 -12.8502 -27.1894 -0.27795 -8.13651 -87.8679 -47.6913 81.4982 -27.0412 16.031 -14.622 -6.63479 10.3185 -0.0085515 2.78305 -0.210749 -16.5358 2.04741 -0.676936 -0.694384 -2.71703 -0.564264 -0.656468 
41.082 102.957 -262.802 -143.416 -82.5247 -144.952 -173.547 -6.69993 90.2089 -5.19733 -5.86764 1.49394 65.7486 3.9928 -1.15406 21.2709 -6.98876 7.76893 170.643 -1.83091 86.1351 -10.7435 0.756129 -0.00685144 64.6929 -1.95613 0.871488 25.7856 0.638102 3.29358 0.306397 7.51791 -89.9896 11.8384 0.614275 -0.0446719 0.167552 0.611711 -0.07167 -22.3687 0.599301 0.142011 -2.35608 0.599301 0.142012 90.0613 -29.1563 -106.963 41.0005 -8.39925 -7.14558 7.88502 -26.493 -11.4597 -27.8344 -0.197893 -8.44385 -87.9227 -48.4771 81.5619 -26.2023 15.9267 -14.9911 -6.89088 10.571 -0.00855845 4.27087 -0.231936 -14.385 2.23407 -0.613882 -0.14125 -2.26017 -0.594281 -1.12677 
40.8557 102.963 -262.653 -141.16 -82.4443 -142.47 -173.316 -6.5337 90.586 -5.27965 -5.97276 1.49481 65.6501 3.89769 -1.16737 21.5156 -6.73548 7.52437 170.898 -1.95943 86.5486 -10.5019 0.647267 -0.0505899 64.5718 -1.99414 0.666023 26.0312 0.403318 3.85856 0.298 7.5225 -90.0413 11.8294 0.573263 -0.143289 0.158584 0.566405 -0.168383 -22.3776 0.589821 0.0356303 -2.36494 0.589827 0.0356352 90.1164 -28.902 -106.952 40.8258 -9.02206 -6.91755 7.97086 -25.6831 -12.0407 -28.6083 -0.0775622 -8.76358 -87.7265 -49.0614 81.9664 -26.0875 15.6236 -14.9691 -6.3219 10.4074 -0.00855393 3.71511 -0.197991 -14.6631 3.06935 -0.48679 0.667058 -2.76977 -0.600662 -1.39625 
40.6303 102.926 -262.538 -136.66 -82.5921 -138.021 -173.248 -6.16174 90.7054 -5.25768 -6.24869 1.36759 65.7838 3.97753 -1.27315 21.3437 -6.91651 7.70372 170.956 -1.27014 86.6708 -11.0226 0.430379 0.0527077 64.9462 -2.16036 0.57875 25.5487 0.717731 3.3956 0.278822 7.51729 -90.0497 11.8397 0.531106 -0.155692 0.1689 0.523751 -0.178923 -22.3671 0.553353 0.0111336 -2.35448 0.553344 0.011122 90.0211 -28.9539 -107.123 40.5696 -8.7933 -7.54171 8.07225 -26.1724 -11.4692 -28.7302 0.0572155 -9.45698 -87.4453 -49.4403 82.4602 -25.0775 16.3842 -15.7398 -7.20561 9.33572 -0.00852613 3.55947 -0.356713 -16.879 4.02847 -0.410388 0.740349 -2.84716 -0.541357 -1.35917 
40.2519 102.911 -262.315 -134.194 -82.4445 -135.299 -172.579 -6.30211 91.4616 -5.26349 -5.93738 0.926993 65.8344 4.05757 -1.28419 21.705 -6.6996 7.69504 171.312 -1.42801 87.2094 -10.9253 0.250004 -0.034304 64.949 -2.26953 0.667874 26.2002 0.726232 2.10944 0.299714 7.50174 -90.0865 11.8711 0.555323 -0.231898 0.200237 0.544583 -0.256125 -22.3359 0.599347 -0.0542687 -2.3232 0.599343 -0.0542819 90.1237 -29.031 -106.887 40.3992 -9.37691 -7.30018 8.39399 -25.7688 -11.8221 -28.5366 -0.057257 -8.87019 -87.8589 -49.6203 81.8674 -24.9282 16.3265 -15.2946 -6.80285 9.14887 -0.00852161 3.16587 -0.34015 -17.1937 3.97953 -0.456026 0.647601 -2.83169 -0.568405 -1.10007 
39.8558 102.861 -261.988 -135.018 -82.6772 -136.029 -171.923 -6.10023 92.1695 -5.6215 -4.9721 0.485424 66.033 4.29359 -1.15672 22.0443 -6.61341 7.95347 171.439 -1.5268 87.534 -11.2187 0.727722 0.022773 65.3224 -2.43996 0.809812 26.1519 0.701776 2.31018 0.260241 7.49783 -90.1088 11.8787 0.466318 -0.266881 0.20784 0.45412 -0.287157 -22.3279 0.524967 -0.114397 -2.31527 0.524962 -0.114398 90.3111 -28.9963 -106.523 40.2095 -9.78471 -7.30957 9.07132 -25.4702 -11.013 -29.1318 0.0359844 -9.16578 -88.0287 -49.8124 81.6465 -24.3558 16.2969 -15.6537 -7.0502 9.07838 -0.00851992 4.72853 -0.459169 -16.0231 4.13153 -0.457048 0.93889 -3.15797 -0.618773 -1.20808 
39.3214 102.838 -261.461 -137.745 -82.7201 -138.661 -171.145 -6.53989 93.0007 -5.75353 -4.17067 0.0492338 66.3947 4.53888 -1.47119 22.1737 -6.68005 8.27951 171.322 -2.07664 87.7567 -11.5255 1.09256 0.257371 65.9911 -2.82729 0.527473 26.1185 0.619124 2.73823 0.219258 7.51599 -90.1385 11.8424 0.370953 -0.315804 0.171495 0.356691 -0.331828 -22.364 0.448708 -0.189712 -2.35131 0.448713 -0.189717 89.9869 -28.9246 -107.203 40.0829 -8.75796 -6.72969 8.39158 -25.6143 -11.0199 -28.1735 0.0048649 -9.18189 -87.889 -49.8932 81.8714 -24.213 15.9288 -15.6753 -6.9362 8.90473 -0.00851584 5.27625 -0.540855 -16.0817 3.73195 -0.341095 1.05033 -3.05417 -0.520155 -0.908265 
38.4646 102.765 -260.767 -140.72 -83.0974 -141.52 -170.764 -6.65081 93.7669 -5.97195 -3.05303 0.131883 66.3426 4.59931 -1.33623 23.0749 -6.23649 8.49177 171.468 -2.72688 88.3296 -11.4851 1.94856 0.437435 66.714 -3.15623 0.429479 25.781 0.666598 3.17883 0.167633 7.54217 -90.1678 11.7898 0.254568 -0.361578 0.118873 0.23841 -0.372435 -22.4162 0.351467 -0.268346 -2.40359 0.351461 -0.268361 89.7591 -28.9288 -107.66 39.637 -8.41163 -6.57351 8.35871 -24.0306 -10.7595 -26.6618 0.0196293 -9.13803 -87.485 -49.6696 82.44 -24.5595 15.1303 -15.708 -6.41754 9.43497 -0.00852857 2.18685 -0.296243 -19.0723 4.06774 -0.372293 1.14859 -3.38643 -0.568782 -1.15321 
37.3559 102.658 -260.241 -141.682 -83.2259 -142.508 -170.483 -6.76935 94.4728 -6.0888 -2.88089 0.308186 66.451 4.66941 -1.62876 23.9727 -5.82203 8.77238 171.801 -2.79334 88.9996 -12.2707 2.46307 0.481376 67.2253 -3.14112 0.974839 26.0713 0.78539 2.07911 0.240353 7.54632 -90.1701 11.7819 0.398116 -0.38128 0.110917 0.380943 -0.39844 -22.4245 0.494296 -0.244004 -2.41186 0.494296 -0.244009 90.1486 -29.1804 -106.778 39.5471 -8.68844 -6.25541 8.51326 -24.6552 -11.1121 -27.5091 -0.106023 -8.55297 -87.8491 -49.2862 81.8221 -24.8589 14.7121 -15.0921 -6.1775 8.43777 -0.00850526 4.66409 -0.511277 -16.4993 4.13262 -0.603727 0.39805 -3.25008 -0.664697 -0.494789 
36.0657 102.582 -259.652 -139.621 -83.6929 -140.622 -170.28 -6.40002 95.0465 -6.24791 -2.57454 0.395738 66.4798 4.73033 -1.69976 24.2509 -5.87382 9.29602 172.17 -2.39244 89.8055 -13.2096 2.65506 0.537618 68.5445 -3.79996 -0.611212 24.4485 0.997341 4.22608 0.276697 7.56269 -90.1345 11.7492 0.487197 -0.31951 0.0783397 0.47267 -0.340654 -22.4574 0.560695 -0.158309 -2.44481 0.5607 -0.158312 90.4629 -29.1598 -106.155 39.8807 -8.61119 -6.80686 7.97579 -25.3152 -11.579 -27.4743 -0.13753 -8.53207 -87.5672 -48.517 82.1116 -25.2907 14.3412 -15.0833 -5.8704 7.82229 -0.00849222 2.9484 -0.405933 -18.2393 5.58334 -0.829716 0.0992546 -4.37189 -0.831313 -0.444491 
34.4645 102.422 -259.036 -138.383 -84.0261 -139.455 -169.686 -6.12818 96.1291 -6.46752 -2.04206 0.306145 66.4788 4.76486 -2.01632 25.1789 -5.55927 9.88704 172.747 -2.3289 90.8469 -13.8983 3.15144 0.529467 69.2426 -3.9606 -0.858285 24.1297 1.17563 4.04755 0.261653 7.58132 -90.1376 11.7119 0.455862 -0.322244 0.0409951 0.441238 -0.341996 -22.4947 0.531634 -0.170335 -2.48206 0.531633 -0.170337 90.1918 -29.3666 -106.62 39.9232 -7.84307 -7.04847 7.09262 -25.6693 -12.2171 -27.5612 -0.133869 -8.60853 -87.8686 -49.0742 81.7542 -24.6514 13.6091 -13.7347 -5.72799 7.73601 -0.00849047 2.25758 -0.356568 -18.8376 7.09918 -0.795047 0.543427 -6.57028 -0.886733 -0.162246 
